<svg xmlns="http://www.w3.org/2000/svg" width="73" height="47" viewBox="0 0 73 47">
    <defs>
        <filter id="a" width="124.5%" height="140%" x="-12%" y="-20%" filterUnits="objectBoundingBox">
            <feOffset dy="1" in="SourceAlpha" result="shadowOffsetOuter1"/>
            <feGaussianBlur in="shadowOffsetOuter1" result="shadowBlurOuter1" stdDeviation="1.5"/>
            <feColorMatrix in="shadowBlurOuter1" result="shadowMatrixOuter1" values="0 0 0 0 0 0 0 0 0 0 0 0 0 0 0 0 0 0 0.3 0"/>
            <feMerge>
                <feMergeNode in="shadowMatrixOuter1"/>
                <feMergeNode in="SourceGraphic"/>
            </feMerge>
        </filter>
    </defs>
    <g fill="none" fill-rule="evenodd" filter="url(#a)" transform="translate(3 2.5)">
        <rect width="66.667" height="40" fill="#FFF" rx="4"/>
        <path fill="#0072CE" d="M56.272 23.11h-2.356c-.235 0-.391.01-.523.098-.136.087-.189.217-.189.388 0 .203.116.341.283.401.136.048.283.061.498.061l.7.02c.707.017 1.179.138 1.467.433.052.041.084.087.12.134V23.11zm0 3.555c-.314.458-.926.69-1.754.69h-2.496v-1.156h2.486c.246 0 .419-.033.523-.134a.473.473 0 0 0 .153-.352.442.442 0 0 0-.158-.356c-.094-.082-.23-.12-.456-.12-1.213-.04-2.727.038-2.727-1.669 0-.782.498-1.605 1.854-1.605h2.574V20.89H53.88c-.722 0-1.246.173-1.618.44v-.44h-3.537c-.566 0-1.23.14-1.544.44v-.44h-6.318v.44c-.502-.36-1.35-.44-1.742-.44h-4.167v.44c-.398-.383-1.283-.44-1.822-.44H28.47L27.4 22.042l-1-1.152h-6.966v7.524h6.836l1.1-1.17 1.035 1.17 4.214.003v-1.77h.414c.559.01 1.218-.013 1.8-.264v2.03h3.475v-1.96h.168c.214 0 .235.009.235.222v1.738h10.557c.67 0 1.37-.17 1.759-.481v.481h3.348c.697 0 1.378-.097 1.896-.346v-1.402zm-5.156-2.154c.252.26.387.588.387 1.142 0 1.16-.727 1.702-2.03 1.702h-2.517v-1.156h2.507c.245 0 .419-.033.528-.134a.477.477 0 0 0 .152-.352.462.462 0 0 0-.157-.356c-.1-.082-.236-.12-.46-.12-1.21-.04-2.723.038-2.723-1.669 0-.782.493-1.605 1.848-1.605h2.59v1.148h-2.37c-.235 0-.388.008-.518.097-.141.087-.194.217-.194.388 0 .203.12.342.283.402.136.047.283.06.503.06l.696.02c.701.017 1.183.138 1.475.433zm-11.661-.333c-.173.102-.387.111-.638.111h-1.57v-1.21h1.591c.23 0 .46.004.617.097.167.087.268.254.268.485 0 .23-.1.416-.268.517zm.78.671c.288.106.523.296.634.453.182.263.208.509.214.984v1.069h-1.298v-.675c0-.324.032-.804-.209-1.055-.189-.193-.476-.24-.948-.24h-1.381v1.97h-1.299v-5.392h2.984c.654 0 1.13.029 1.555.254.408.246.664.583.664 1.198 0 .86-.575 1.3-.916 1.434zm1.633-2.886h4.313v1.115h-3.026v.98h2.952v1.1h-2.952v1.073l3.026.005v1.119h-4.313v-5.392zm-8.72 2.488h-1.67v-1.373h1.686c.466 0 .79.19.79.661 0 .467-.309.712-.805.712zm-2.957 2.413l-1.984-2.196 1.984-2.126v4.322zm-5.124-.633H21.89v-1.073h2.837v-1.1H21.89v-.98h3.24l1.413 1.571-1.476 1.582zm10.275-2.492c0 1.498-1.121 1.807-2.25 1.807h-1.613v1.809h-2.512l-1.592-1.785-1.653 1.785h-5.12v-5.392H25.8l1.59 1.767 1.644-1.767h4.13c1.025 0 2.178.283 2.178 1.776zM14.437 15.75l-.885-2.15-.88 2.15h1.765zm19.486-.856c-.178.107-.388.11-.64.11h-1.57v-1.196h1.592c.225 0 .46.01.613.097.168.078.271.245.271.476 0 .236-.098.425-.266.513zm11.2.855l-.894-2.148-.89 2.148h1.784zm-20.878 2.326h-1.324l-.005-4.221-1.874 4.221h-1.135l-1.879-4.225v4.225H15.4l-.497-1.202h-2.69l-.502 1.202h-1.404l2.314-5.39h1.92l2.198 5.104v-5.104h2.11l1.691 3.657 1.554-3.657h2.151v5.39zm5.28 0H25.21v-5.39h4.317v1.123H26.5v.971h2.952v1.105h-2.952v1.077h3.025v1.114zm6.088-3.938c0 .86-.575 1.303-.91 1.437.282.107.524.296.639.454.182.268.214.507.214.989v1.058h-1.304l-.005-.68c0-.324.031-.79-.204-1.05-.189-.189-.477-.23-.942-.23h-1.387v1.96h-1.292v-5.39h2.972c.66 0 1.147.017 1.565.258.409.241.654.593.654 1.194zm2.068 3.938h-1.319v-5.39h1.32v5.39zm15.298 0h-1.831l-2.45-4.045v4.045h-2.632l-.503-1.202H42.88l-.488 1.202h-1.512c-.629 0-1.424-.138-1.874-.596-.454-.457-.69-1.077-.69-2.058 0-.8.14-1.53.696-2.107.418-.43 1.072-.629 1.963-.629h1.25v1.155H41c-.472 0-.738.07-.995.32-.22.226-.371.655-.371 1.22 0 .578.115.994.355 1.266.2.214.56.278.9.278h.581l1.822-4.239h1.936l2.188 5.099v-5.099h1.968l2.272 3.754v-3.754h1.323v5.39zm-42.687 1.06H12.5l.498-1.198h1.115l.496 1.197h4.345v-.915l.388.92h2.255l.388-.934v.93h10.797l-.005-1.966h.209c.146.005.189.018.189.26v1.705h5.584v-.457c.45.24 1.151.457 2.073.457h2.35l.502-1.197H44.8l.492 1.197h4.527v-1.137l.685 1.137h3.628v-7.518h-3.59v.888l-.503-.888h-3.684v.888l-.462-.888h-4.976c-.833 0-1.565.116-2.157.44v-.44h-3.434v.44c-.376-.334-.89-.44-1.46-.44H21.32l-.841 1.942-.865-1.942h-3.952v.888l-.434-.888h-3.37l-1.565 3.575v3.943z"/>
    </g>
</svg>
