<svg xmlns="http://www.w3.org/2000/svg" width="18" height="20" viewBox="0 0 18 20">
    <defs>
        <linearGradient id="a" x1=".258%" x2="101.258%" y1="49.75%" y2="49.75%">
            <stop offset="0%" stop-color="#A31D6E"/>
            <stop offset="100%" stop-color="#E2245E"/>
        </linearGradient>
    </defs>
    <path fill="url(#a)" fill-rule="evenodd" d="M8.3 14.625h1.186v1.185H8.3v-1.185zm-1.185 2.371h3.557v-3.557H7.115v3.557zm5.928-2.371h1.186v1.185h-1.186v-1.185zm-1.185 2.371h3.557v-3.557h-3.557v3.557zM8.3 9.881h1.186v1.186H8.3V9.881zm-1.185 2.372h3.557V8.696H7.115v3.557zM16.6 5.138H1.186V3.36c0-.328.265-.593.593-.593h2.964v1.186H5.93V2.767h5.929v1.186h1.185V2.767h2.965c.327 0 .593.265.593.593v1.778zm0 12.45a.595.595 0 0 1-.593.594H1.778a.595.595 0 0 1-.592-.593V6.324H16.6V17.59zm.593-16.007h-4.15V.391h-1.186v1.19h-5.93V.391H4.744v1.19H1.186C.53 1.581 0 2.111 0 2.767v15.415c0 .652.53 1.186 1.186 1.186H16.6c.655 0 1.186-.534 1.186-1.186V2.767c0-.656.062-1.186-.593-1.186zM3.557 14.625h1.186v1.185H3.557v-1.185zm-1.185 2.371h3.557v-3.557H2.372v3.557zm1.185-7.115h1.186v1.186H3.557V9.881zm-1.185 2.372h3.557V8.696H2.372v3.557zm10.671-2.372h1.186v1.186h-1.186V9.881zm-1.185 2.372h3.557V8.696h-3.557v3.557z"/>
</svg>
