<svg xmlns="http://www.w3.org/2000/svg" width="23" height="18" viewBox="0 0 23 18">
    <defs>
        <linearGradient id="a" x1=".258%" x2="101.258%" y1="49.75%" y2="49.75%">
            <stop offset="0%" stop-color="#A31D6E"/>
            <stop offset="100%" stop-color="#E2245E"/>
        </linearGradient>
    </defs>
    <path fill="url(#a)" fill-rule="evenodd" d="M20.728 15.923c0 .383-.31.692-.693.692H2.072a.691.691 0 0 1-.692-.692V2.105l9.166 7.347.014.037a.66.66 0 0 0 .494.194.67.67 0 0 0 .498-.194l.014-.037 9.162-7.347v13.818zM19.463 1.39l-8.41 6.739L2.65 1.389h16.814zm2.645-.71l-.005-.024a.69.69 0 0 0-.175-.42l-.019-.041-.05-.023a.677.677 0 0 0-.374-.157L21.41 0H.7L.629.014A.663.663 0 0 0 .254.17L.198.194.18.235a.685.685 0 0 0-.17.42L.004.678 0 .692v16.616c0 .383.31.692.692.692H21.42c.383 0 .692-.31.692-.692V.692l-.004-.014z"/>
</svg>
