<svg xmlns="http://www.w3.org/2000/svg" width="18" height="18"><path d="M16.2 2.977l-3.712 3.715-.356.36.03.506.45 7.506c0 .082.004.1-.07.19l-.74.83-1.73-4.702-.604-1.665-1.252 1.253-2.3 2.22-.32.32v.454l-.004 1.582v.885l.067.11-.07-.034.004-.075-.1-.143-1.3-2.084-.142-.236-.236-.142L1.51 12.38h-.015l-.026-.026-.022-.015.022.015.04.026h.022l2.14.02h.382l.45-.01.32-.322 2.216-2.287L8.29 8.53l-1.657-.61-4.736-1.766.83-.742c.056-.048.1-.07.13-.07h.037l8.058.52 4.068-4.075c.57-.57 1.132-.656 1.417-.656.184 0 .31.034.38.06.082.214.19 1-.607 1.788zM17.624.382C17.407.165 16.972 0 16.44 0c-.667 0-1.485.255-2.216.986l-3.71 3.715-7.57-.49h-.086c-.18 0-.49.034-.847.326L.724 5.703c-.2.2-.315.472-.29.716a.66.66 0 0 0 .457.562L6.247 8.98 4.03 11.27l-.356.004c-.675 0-1.72-.022-2.14-.022h-.13c-.127.004-.394-.06-1.09.525l-.05.045c-.2.2-.26.42-.262.56a.61.61 0 0 0 .24.51c.124.1 1.706 1.117 3.004 1.9L5.06 17.7c.11.187.29.292.502.3h.015c.2 0 .424-.105.63-.308.592-.69.5-.978.514-1.098l.007-2.606 2.3-2.216 1.957 5.32a.66.66 0 0 0 .562.457l.07.004c.225 0 .454-.105.64-.292l1.162-1.3c.345-.42.334-.78.326-.95l-.45-7.532 3.71-3.715c1.316-1.32 1.106-2.906.62-3.393z" fill="#fff" fill-rule="evenodd"/></svg>