<svg xmlns="http://www.w3.org/2000/svg" width="30" height="24" viewBox="0 0 30 24">
    <defs>
        <filter id="a" width="166.7%" height="201.1%" x="-33.3%" y="-51.7%" filterUnits="objectBoundingBox">
            <feOffset dy="1" in="SourceAlpha" result="shadowOffsetOuter1"/>
            <feGaussianBlur in="shadowOffsetOuter1" result="shadowBlurOuter1" stdDeviation="1.5"/>
            <feColorMatrix in="shadowBlurOuter1" result="shadowMatrixOuter1" values="0 0 0 0 0 0 0 0 0 0 0 0 0 0 0 0 0 0 0.300300045 0"/>
            <feMerge>
                <feMergeNode in="shadowMatrixOuter1"/>
                <feMergeNode in="SourceGraphic"/>
            </feMerge>
        </filter>
    </defs>
    <g fill="none" fill-rule="evenodd" filter="url(#a)" transform="translate(3 2)">
        <path fill="#EEE" d="M21.292.052H13.64v6.986h10.313V2.713A2.662 2.662 0 0 0 21.292.052"/>
        <path fill="#E8112D" d="M13.64.052h-3.327v6.986H0v3.327h10.313v6.987h3.327v-6.987h10.313V7.038H13.64z"/>
        <path fill="#E8112D" d="M19.24 3.103c.02-.415.068-.828.146-1.238-.391.05-.787.05-1.178 0 .078.41.126.823.147 1.238a9.029 9.029 0 0 1-1.238-.147c.05.39.05.787 0 1.178.41-.078.823-.126 1.238-.147a9.04 9.04 0 0 1-.147 1.238c.39-.05.787-.05 1.178 0a9.03 9.03 0 0 1-.147-1.238c.415.02.828.07 1.238.147a4.718 4.718 0 0 1 0-1.178 9.04 9.04 0 0 1-1.238.147"/>
        <path fill="#EEE" d="M10.313.052H2.661A2.662 2.662 0 0 0 0 2.713v4.325h10.313V.052z"/>
        <path fill="#E8112D" d="M4.4 3.103c.02-.415.07-.828.147-1.238-.391.05-.787.05-1.178 0 .078.41.126.823.147 1.238a9.029 9.029 0 0 1-1.238-.147c.05.39.05.787 0 1.178.41-.078.823-.126 1.238-.147a9.04 9.04 0 0 1-.147 1.238c.391-.05.787-.05 1.178 0A9.03 9.03 0 0 1 4.4 3.987c.415.02.828.07 1.238.147a4.718 4.718 0 0 1 0-1.178 9.04 9.04 0 0 1-1.238.147"/>
        <path fill="#EEE" d="M23.953 14.69v-4.325H13.64v6.987h7.652a2.662 2.662 0 0 0 2.661-2.662"/>
        <path fill="#E8112D" d="M19.24 14.3c.02.415.068.829.146 1.238a4.718 4.718 0 0 0-1.178 0 9.03 9.03 0 0 0 .147-1.237c-.415.02-.829.069-1.238.147.05-.391.05-.787 0-1.179.41.078.823.127 1.238.147a9.04 9.04 0 0 0-.147-1.237c.39.05.787.05 1.178 0a9.03 9.03 0 0 0-.147 1.237 9.04 9.04 0 0 0 1.238-.147c-.05.392-.05.788 0 1.179a9.04 9.04 0 0 0-1.238-.147"/>
        <path fill="#EEE" d="M10.313 10.365H0v4.325a2.662 2.662 0 0 0 2.661 2.662h7.652v-6.987z"/>
        <path fill="#E8112D" d="M4.4 14.3c.02.415.07.829.147 1.238a4.718 4.718 0 0 0-1.178 0 9.03 9.03 0 0 0 .147-1.237c-.415.02-.828.069-1.238.147.05-.391.05-.787 0-1.179.41.078.823.127 1.238.147a9.04 9.04 0 0 0-.147-1.237c.391.05.787.05 1.178 0a9.03 9.03 0 0 0-.147 1.237 9.04 9.04 0 0 0 1.238-.147c-.05.392-.05.788 0 1.179A9.04 9.04 0 0 0 4.4 14.3"/>
    </g>
</svg>
