<svg xmlns="http://www.w3.org/2000/svg" width="18" height="18"><path d="M14.625 11.25h1.125v-1.128h-1.125v1.128zM6.75 7.875h4.5V6.75h-4.5v1.125zm7.875 0h1.125V6.75h-1.125v1.125zm0 6.75h1.125V13.5h-1.125v1.125zM13.5 4.5h3.375v12.375H13.5V4.5zm-1.125-1.125v13.5H11.25V13.5h-4.5v3.375H5.625V1.125h6.75v2.25zm-4.5 11.25h2.25v2.25h-2.25v-2.25zM1.125 4.5H4.5v12.375H1.125V4.5zM13.5 3.375V0h-9v3.375H0V18h18V3.375h-4.5zM6.75 11.25h4.5v-1.128h-4.5v1.128zm-4.5 3.375h1.125V13.5H2.25v1.125zm0-3.375h1.125v-1.128H2.25v1.128zm0-3.375h1.125V6.75H2.25v1.125zM6.75 4.5h4.5V3.375h-4.5V4.5z" fill="#fff" fill-rule="evenodd"/></svg>