<?xml version="1.0" encoding="UTF-8"?>
<svg width="18px" height="18px" viewBox="0 0 18 18" version="1.1" xmlns="http://www.w3.org/2000/svg" xmlns:xlink="http://www.w3.org/1999/xlink">
    <!-- Generator: sketchtool 52.5 (67469) - http://www.bohemiancoding.com/sketch -->
    <title>260FAA0A-BF8A-4961-87F1-2215FFDF863C</title>
    <desc>Created with sketchtool.</desc>
    <g id="alisontravel.eu-copy" stroke="none" stroke-width="1" fill="none" fill-rule="evenodd" opacity="0.299269903">
        <g id="Mobile---Country" transform="translate(-135.000000, -173.000000)" fill="#000000">
            <path d="M149.625,184.25 L150.75,184.25 L150.75,183.121625 L149.625,183.121625 L149.625,184.25 Z M141.75,180.875 L146.25,180.875 L146.25,179.75 L141.75,179.75 L141.75,180.875 Z M149.625,180.875 L150.75,180.875 L150.75,179.75 L149.625,179.75 L149.625,180.875 Z M149.625,187.625 L150.75,187.625 L150.75,186.5 L149.625,186.5 L149.625,187.625 Z M148.5,177.5 L151.875,177.5 L151.875,189.875 L148.5,189.875 L148.5,177.5 Z M147.375,176.375 L147.375,189.875 L146.25,189.875 L146.25,186.5 L141.75,186.5 L141.75,189.875 L140.625,189.875 L140.625,174.125 L147.375,174.125 L147.375,176.375 L147.375,176.375 Z M142.875,187.625 L145.125,187.625 L145.125,189.875 L142.875,189.875 L142.875,187.625 Z M136.125,177.5 L139.5,177.5 L139.5,189.875 L136.125,189.875 L136.125,177.5 Z M148.5,176.375 L148.5,173 L139.5,173 L139.5,176.375 L135,176.375 L135,191 L153,191 L153,176.375 L148.5,176.375 L148.5,176.375 Z M141.75,184.25 L146.25,184.25 L146.25,183.121625 L141.75,183.121625 L141.75,184.25 Z M137.25,187.625 L138.375,187.625 L138.375,186.5 L137.25,186.5 L137.25,187.625 Z M137.25,184.25 L138.375,184.25 L138.375,183.121625 L137.25,183.121625 L137.25,184.25 Z M137.25,180.875 L138.375,180.875 L138.375,179.75 L137.25,179.75 L137.25,180.875 Z M141.75,177.5 L146.25,177.5 L146.25,176.375 L141.75,176.375 L141.75,177.5 Z" id="Fill-111"></path>
        </g>
    </g>
</svg>