<?xml version="1.0" encoding="UTF-8"?>
<svg width="15px" height="15px" viewBox="0 0 15 15" version="1.1" xmlns="http://www.w3.org/2000/svg" xmlns:xlink="http://www.w3.org/1999/xlink">
    <!-- Generator: sketchtool 52.5 (67469) - http://www.bohemiancoding.com/sketch -->
    <title>29ED2058-52BA-4C62-A46B-8AB66C62EF45</title>
    <desc>Created with sketchtool.</desc>
    <g id="alisontravel.eu-copy" stroke="none" stroke-width="1" fill="none" fill-rule="evenodd" opacity="0.5">
        <g id="Web---Home" transform="translate(-144.000000, -5119.000000)" fill="#000000" fill-rule="nonzero">
            <g id="instagram-(2)" transform="translate(144.000000, 5119.000000)">
                <path d="M1.926,0.0006 L13.0749,0.0006 C14.1341,0.0006 15,0.8668 15,1.926 L15,13.0749 C15,14.1338 14.1341,14.9994 13.0749,14.9994 L1.926,14.9994 C0.8668,14.9994 0,14.13375 0,13.0749 L0,1.926 C0,0.8668 0.8668,0.0006 1.926,0.0006 Z M10.9273,1.66645 C10.5554,1.66645 10.25205,1.971 10.25205,2.3427 L10.25205,3.9584 C10.25205,4.33025 10.5554,4.6341 10.9273,4.6341 L12.62245,4.6341 C12.99375,4.6341 13.29775,4.33025 13.29775,3.9584 L13.29775,2.3427 C13.29775,1.971 12.99375,1.66645 12.62245,1.66645 L10.9273,1.66645 Z M13.3042,6.3434 L11.9844,6.3434 C12.10955,6.75215 12.1774,7.1832 12.1774,7.63135 C12.1774,10.12545 10.0891,12.14835 7.5141,12.14835 C4.93975,12.14835 2.8514,10.12545 2.8514,7.63135 C2.8514,7.1832 2.9199,6.75215 3.04445,6.3434 L1.6675,6.3434 L1.6675,12.68 C1.6675,13.00815 1.93545,13.2751 2.2633,13.2751 L12.70865,13.2751 C13.0368,13.2751 13.3042,13.00815 13.3042,12.68 L13.3042,6.3434 Z M7.51415,4.5489 C5.85115,4.5489 4.50215,5.8553 4.50215,7.4683 C4.50215,9.07965 5.85115,10.38705 7.51415,10.38705 C9.17805,10.38705 10.5271,9.07965 10.5271,7.4683 C10.5271,5.85525 9.17805,4.5489 7.51415,4.5489 Z" id="XMLID_505_"></path>
            </g>
        </g>
    </g>
</svg>