<svg xmlns="http://www.w3.org/2000/svg" width="15" height="15" viewBox="0 0 15 15">
    <path fill="#000" fill-rule="nonzero" d="M1.926 0h11.149A1.93 1.93 0 0 1 15 1.927v11.149a1.93 1.93 0 0 1-1.925 1.924H1.926A1.93 1.93 0 0 1 0 13.075V1.926C0 .866.867.001 1.926.001zm9.001 1.666a.678.678 0 0 0-.675.677v1.615c0 .372.303.676.675.676h1.695a.677.677 0 0 0 .676-.676V2.343a.678.678 0 0 0-.676-.677h-1.695zm2.377 4.677h-1.32c.126.41.193.84.193 1.288 0 2.494-2.088 4.517-4.663 4.517-2.574 0-4.663-2.023-4.663-4.517 0-.448.069-.879.193-1.288H1.667v6.337c0 .328.268.595.596.595H12.71a.596.596 0 0 0 .595-.595V6.343zM7.514 4.55c-1.663 0-3.012 1.306-3.012 2.92 0 1.61 1.35 2.918 3.012 2.918 1.664 0 3.013-1.307 3.013-2.919 0-1.613-1.349-2.92-3.013-2.92z" opacity=".5"/>
</svg>
