<svg xmlns="http://www.w3.org/2000/svg" width="15" height="20" viewBox="0 0 15 20">
    <defs>
        <linearGradient id="a" x1=".258%" x2="101.258%" y1="49.75%" y2="49.75%">
            <stop offset="0%" stop-color="#A31D6E"/>
            <stop offset="100%" stop-color="#E2245E"/>
        </linearGradient>
    </defs>
    <path fill="url(#a)" fill-rule="evenodd" d="M1.333 7.582c0-3.453 2.685-6.249 6-6.249 3.316 0 6 2.796 6 6.25 0 3.448-6 10.413-6 10.413s-6-6.965-6-10.414zm10 11.085H8.45c2.049-2.53 6.218-8.045 6.218-11.17C14.667 3.357 11.382 0 7.333 0 3.284 0 0 3.356 0 7.498c0 3.124 4.169 8.64 6.218 11.169H3.333a.666.666 0 1 0 0 1.333h8a.666.666 0 1 0 0-1.333zm-4-9.334a2 2 0 1 1 0-4 2 2 0 0 1 0 4zm0-5.333a3.335 3.335 0 0 0 0 6.667 3.335 3.335 0 0 0 0-6.667z"/>
</svg>
