<svg xmlns="http://www.w3.org/2000/svg" width="13" height="18" viewBox="0 0 13 18">
    <path fill="#000" fill-rule="evenodd" d="M1.152 6.548c0-2.982 2.318-5.396 5.181-5.396 2.864 0 5.182 2.414 5.182 5.396 0 2.978-5.182 8.994-5.182 8.994S1.152 9.526 1.152 6.548zm8.636 9.573H7.297c1.77-2.184 5.37-6.947 5.37-9.646C12.667 2.898 9.83 0 6.333 0 2.837 0 0 2.898 0 6.475c0 2.699 3.6 7.462 5.37 9.646H2.879a.575.575 0 1 0 0 1.152h6.909a.575.575 0 1 0 0-1.152zm-3.455-8.06a1.727 1.727 0 1 1 0-3.455 1.727 1.727 0 0 1 0 3.455zm0-4.606a2.88 2.88 0 0 0 0 5.757 2.88 2.88 0 0 0 0-5.757z" opacity=".702"/>
</svg>
