<svg xmlns="http://www.w3.org/2000/svg" width="19" height="20" viewBox="0 0 19 20">
    <defs>
        <linearGradient id="a" x1=".258%" x2="101.258%" y1="49.75%" y2="49.75%">
            <stop offset="0%" stop-color="#A41D6E"/>
            <stop offset="100%" stop-color="#E2245E"/>
        </linearGradient>
    </defs>
    <path fill="url(#a)" fill-rule="evenodd" d="M12.245 13.649v1.187c2.875.278 4.898.931 4.898 1.695 0 1.016-3.564 1.84-7.96 1.84-4.395 0-7.959-.824-7.959-1.84 0-.764 2.023-1.417 4.898-1.695V13.65C2.558 14.069 0 15.199 0 16.531c0 1.693 4.111 3.065 9.184 3.065 5.072 0 9.183-1.372 9.183-3.065 0-1.331-2.558-2.462-6.122-2.882zM9.184 1.224a4.285 4.285 0 1 1 0 8.572 4.285 4.285 0 0 1 0-8.572zM8.57 10.96v5.572c0 .338.274.616.613.616a.616.616 0 0 0 .612-.616v-5.572c2.75-.306 4.898-2.612 4.898-5.449 0-3.04-2.467-5.51-5.51-5.51a5.512 5.512 0 0 0-5.51 5.51c0 2.837 2.146 5.143 4.897 5.45z"/>
</svg>
