<svg xmlns="http://www.w3.org/2000/svg" width="17" height="14" viewBox="0 0 17 14">
    <path fill="#000" fill-rule="evenodd" d="M15.223 11.695a.508.508 0 0 1-.508.508H1.522a.508.508 0 0 1-.508-.508V1.545l6.732 5.397.01.027c.101.102.23.146.362.143a.492.492 0 0 0 .367-.143l.01-.027 6.728-5.396v10.149zM14.295 1.02L8.118 5.97 1.946 1.02h12.349zm1.942-.522l-.003-.017a.507.507 0 0 0-.13-.308l-.013-.03-.037-.018a.497.497 0 0 0-.275-.115L15.725 0H.515L.461.01C.356.02.261.06.186.125l-.04.017-.014.03a.503.503 0 0 0-.125.31L.003.497 0 .508v12.204c0 .28.227.508.508.508h15.224a.508.508 0 0 0 .508-.508V.508l-.003-.01z" opacity=".7"/>
</svg>
