<svg xmlns="http://www.w3.org/2000/svg" width="73" height="47" viewBox="0 0 73 47">
    <defs>
        <filter id="a" width="124.5%" height="140%" x="-12%" y="-20%" filterUnits="objectBoundingBox">
            <feOffset dy="1" in="SourceAlpha" result="shadowOffsetOuter1"/>
            <feGaussianBlur in="shadowOffsetOuter1" result="shadowBlurOuter1" stdDeviation="1.5"/>
            <feColorMatrix in="shadowBlurOuter1" result="shadowMatrixOuter1" values="0 0 0 0 0 0 0 0 0 0 0 0 0 0 0 0 0 0 0.3 0"/>
            <feMerge>
                <feMergeNode in="shadowMatrixOuter1"/>
                <feMergeNode in="SourceGraphic"/>
            </feMerge>
        </filter>
    </defs>
    <g fill="none" fill-rule="evenodd" filter="url(#a)" transform="translate(3 2.5)">
        <rect width="66.667" height="40" fill="#FFF" rx="4"/>
        <path fill="#C00" d="M37.42 20.324c0 7.185-5.825 13.01-13.01 13.01-7.186 0-13.011-5.825-13.011-13.01 0-7.186 5.825-13.01 13.01-13.01 7.186 0 13.01 5.824 13.01 13.01"/>
        <path fill="#F90" d="M41.876 7.313a12.964 12.964 0 0 0-8.734 3.368c-.47.426-.909.887-1.313 1.377h2.628c.36.437.69.897.992 1.378h-4.612a13.07 13.07 0 0 0-.75 1.378h6.111c.21.446.393.905.551 1.377h-7.213c-.15.45-.277.909-.378 1.378h7.969a13.105 13.105 0 0 1-.378 6.888h-7.213c.158.471.342.931.55 1.378h6.112c-.223.475-.473.935-.75 1.377h-4.611c.3.48.632.94.992 1.377h2.627c-.404.49-.843.951-1.314 1.378a12.962 12.962 0 0 0 8.734 3.366c7.185 0 13.01-5.824 13.01-13.01 0-7.184-5.825-13.01-13.01-13.01"/>
        <path fill="#006" d="M21.371 21.748a2.43 2.43 0 0 0-.315-.022c-.8 0-1.206.274-1.206.817 0 .334.198.547.506.547.576 0 .99-.548 1.015-1.342zm1.028 2.391h-1.171l.027-.556c-.357.44-.833.65-1.48.65-.766 0-1.29-.598-1.29-1.467 0-1.307.912-2.069 2.479-2.069.16 0 .366.015.576.042.043-.178.055-.253.055-.349 0-.355-.246-.488-.906-.488a4.71 4.71 0 0 0-1.495.242l.196-1.207c.704-.207 1.168-.284 1.69-.284 1.213 0 1.856.544 1.854 1.573.003.276-.043.616-.114 1.064-.122.777-.386 2.444-.421 2.85zM17.893 24.14h-1.412l.81-5.073-1.808 5.072h-.962l-.12-5.044-.85 5.044H12.23l1.105-6.599h2.03l.124 3.694 1.239-3.694h2.259l-1.093 6.6M43.621 21.748a2.418 2.418 0 0 0-.314-.022c-.801 0-1.206.274-1.206.817 0 .334.197.547.506.547.575 0 .99-.548 1.014-1.342zm1.028 2.391h-1.17l.026-.556c-.356.44-.833.65-1.48.65-.766 0-1.29-.598-1.29-1.467 0-1.307.913-2.069 2.48-2.069.16 0 .365.015.575.042.044-.178.055-.253.055-.349 0-.355-.246-.488-.905-.488a4.72 4.72 0 0 0-1.496.242c.016-.09.197-1.207.197-1.207.703-.207 1.168-.284 1.69-.284 1.213 0 1.855.544 1.854 1.573.002.276-.043.616-.115 1.064-.122.777-.385 2.444-.42 2.85zM28.676 24.058a3.228 3.228 0 0 1-1.015.174c-.722 0-1.116-.415-1.116-1.18-.01-.236.104-.86.193-1.43.082-.5.613-3.662.613-3.662h1.403l-.163.813h.848l-.192 1.29h-.85c-.164 1.02-.396 2.291-.399 2.46 0 .277.148.398.484.398.16 0 .285-.017.38-.051l-.186 1.188M32.98 24.014c-.482.148-.947.22-1.44.218-1.572-.002-2.392-.822-2.392-2.394 0-1.835 1.043-3.185 2.458-3.185 1.157 0 1.897.756 1.897 1.941 0 .395-.051.779-.174 1.32h-2.795c-.095.78.403 1.103 1.22 1.103a3.33 3.33 0 0 0 1.46-.337l-.234 1.334zm-.79-3.181c.009-.112.15-.958-.653-.958-.446 0-.767.34-.896.958h1.55zM23.246 20.47c0 .678.329 1.146 1.075 1.498.572.269.66.348.66.592 0 .334-.252.486-.81.486-.422 0-.814-.066-1.266-.213l-.194 1.24c.32.07.607.135 1.47.16 1.49 0 2.178-.568 2.178-1.795 0-.737-.288-1.17-.995-1.496-.592-.271-.66-.332-.66-.582 0-.29.234-.439.69-.439.278 0 .656.03 1.016.08l.2-1.244a9.536 9.536 0 0 0-1.243-.104c-1.58 0-2.126.825-2.121 1.816M39.85 18.794c.392 0 .758.102 1.261.357l.232-1.433c-.208-.081-.936-.558-1.553-.558-.945 0-1.744.47-2.306 1.243-.82-.272-1.157.277-1.57.824l-.367.085c.028-.18.053-.358.045-.54h-1.298c-.177 1.662-.49 3.344-.736 5.006l-.065.361h1.413c.236-1.532.365-2.513.444-3.178l.532-.294c.08-.297.328-.396.827-.384-.065.35-.1.718-.1 1.1 0 1.756.948 2.85 2.468 2.85.392 0 .728-.052 1.249-.194l.247-1.504c-.468.23-.851.338-1.2.338-.82 0-1.317-.606-1.317-1.607 0-1.454.738-2.472 1.793-2.472M51.807 17.54l-.314 1.907c-.385-.508-.8-.876-1.348-.876-.712 0-1.361.54-1.786 1.336-.591-.123-1.203-.332-1.203-.332v.005c.047-.444.067-.715.062-.807h-1.297c-.176 1.661-.49 3.343-.736 5.005l-.065.361h1.413c.191-1.238.337-2.268.444-3.083.484-.437.725-.817 1.212-.792a4.6 4.6 0 0 0-.342 1.741c0 1.342.678 2.227 1.706 2.227.517 0 .914-.179 1.302-.592l-.067.499h1.337L53.2 17.54h-1.394zm-1.766 5.36c-.48 0-.724-.357-.724-1.058 0-1.055.455-1.803 1.095-1.803.486 0 .749.37.749 1.05 0 1.065-.463 1.81-1.12 1.81z"/>
        <path fill="#FFF" d="M18.3 23.748h-1.413l.81-5.073-1.807 5.073h-.963l-.119-5.043-.85 5.043h-1.322l1.104-6.599h2.031l.057 4.085 1.37-4.085h2.194L18.3 23.748M21.778 21.357a2.348 2.348 0 0 0-.316-.022c-.8 0-1.205.274-1.205.817 0 .333.198.547.506.547.576 0 .99-.548 1.015-1.342zm1.027 2.39h-1.17l.027-.555c-.357.439-.834.649-1.48.649-.766 0-1.29-.598-1.29-1.467 0-1.307.912-2.068 2.479-2.068.16 0 .365.015.575.042.044-.178.056-.253.056-.35 0-.354-.246-.487-.906-.487a4.692 4.692 0 0 0-1.495.241l.196-1.207c.703-.206 1.168-.284 1.69-.284 1.213 0 1.855.545 1.854 1.574.002.276-.043.617-.114 1.063-.123.777-.386 2.445-.422 2.85zM41.749 17.327l-.231 1.432c-.505-.254-.87-.356-1.262-.356-1.054 0-1.794 1.019-1.794 2.472 0 1.002.497 1.607 1.318 1.607.348 0 .732-.108 1.2-.338l-.249 1.503c-.52.142-.856.194-1.247.194-1.521 0-2.469-1.094-2.469-2.85 0-2.358 1.31-4.007 3.182-4.007.617 0 1.345.261 1.552.343M44.027 21.357a2.33 2.33 0 0 0-.314-.022c-.8 0-1.205.274-1.205.817 0 .333.197.547.506.547.575 0 .99-.548 1.013-1.342zm1.028 2.39h-1.17l.027-.555c-.357.439-.833.649-1.48.649-.766 0-1.29-.598-1.29-1.467 0-1.307.912-2.068 2.48-2.068.16 0 .364.015.574.042.044-.178.056-.253.056-.35 0-.354-.246-.487-.906-.487a4.694 4.694 0 0 0-1.495.241l.196-1.207c.704-.206 1.168-.284 1.69-.284 1.213 0 1.856.545 1.854 1.574.003.276-.043.617-.114 1.063-.122.777-.385 2.445-.422 2.85zM29.082 23.666a3.226 3.226 0 0 1-1.015.175c-.722 0-1.116-.415-1.116-1.179-.01-.238.104-.86.194-1.43.081-.502.612-3.663.612-3.663h1.404l-.164.812h.72l-.191 1.29h-.723c-.163 1.021-.396 2.292-.399 2.46 0 .278.149.398.484.398.161 0 .286-.016.381-.05l-.187 1.187M33.387 23.624a4.808 4.808 0 0 1-1.441.217c-1.572-.001-2.39-.823-2.39-2.394 0-1.835 1.041-3.186 2.455-3.186 1.159 0 1.898.756 1.898 1.943 0 .393-.051.777-.173 1.32H30.94c-.095.778.404 1.103 1.22 1.103.503 0 .956-.104 1.46-.338l-.233 1.335zm-.79-3.183c.008-.112.15-.958-.653-.958-.447 0-.767.342-.897.958h1.55zM23.652 20.078c0 .68.33 1.146 1.076 1.499.572.268.66.348.66.592 0 .334-.252.485-.811.485a3.98 3.98 0 0 1-1.266-.21l-.193 1.237c.32.07.607.135 1.469.16 1.49 0 2.179-.567 2.179-1.794 0-.738-.288-1.17-.996-1.495-.592-.272-.66-.333-.66-.583 0-.29.235-.44.691-.44.277 0 .656.031 1.015.082l.201-1.245a9.615 9.615 0 0 0-1.243-.105c-1.58 0-2.127.825-2.122 1.817M52.531 23.748h-1.336l.066-.5c-.387.414-.784.593-1.302.593-1.026 0-1.705-.885-1.705-2.227 0-1.785 1.052-3.29 2.298-3.29.547 0 .962.224 1.348.732l.314-1.907h1.393l-1.076 6.599zm-2.084-1.24c.658 0 1.12-.746 1.12-1.809 0-.682-.263-1.052-.748-1.052-.64 0-1.096.748-1.096 1.803 0 .703.244 1.058.724 1.058zM46.328 18.381c-.177 1.661-.491 3.344-.737 5.006l-.064.36h1.413c.505-3.281.626-3.922 1.42-3.842.125-.671.36-1.26.535-1.556-.591-.123-.922.211-1.355.846.035-.275.097-.541.085-.814h-1.297M34.701 18.381c-.177 1.661-.492 3.344-.737 5.006l-.064.36h1.413c.505-3.281.627-3.922 1.418-3.842.127-.671.362-1.26.537-1.556-.59-.123-.922.211-1.354.846.034-.275.097-.541.084-.814h-1.297"/>
    </g>
</svg>
