<svg xmlns="http://www.w3.org/2000/svg" width="14" height="20" viewBox="0 0 14 20">
    <defs>
        <linearGradient id="a" x1=".258%" x2="101.258%" y1="49.75%" y2="49.75%">
            <stop offset="0%" stop-color="#A31D6E"/>
            <stop offset="100%" stop-color="#E2245E"/>
        </linearGradient>
    </defs>
    <path fill="url(#a)" fill-rule="evenodd" d="M12.5 16.25c0 1.38-1.12 2.5-2.5 2.5H3.75c-1.38 0-2.5-1.12-2.5-2.5v-2.5a2.495 2.495 0 0 1 2.304-2.483c.93.766 2.071 1.233 3.321 1.233 1.246 0 2.387-.467 3.32-1.233A2.495 2.495 0 0 1 12.5 13.75v2.5zm-10-10c0-2.763 1.958-5 4.375-5s4.375 2.237 4.375 5c0 2.758-1.958 5-4.375 5S2.5 9.008 2.5 6.25zm8.692 3.958A6.605 6.605 0 0 0 12.5 6.25C12.5 2.796 9.983 0 6.875 0S1.25 2.796 1.25 6.25c0 1.512.504 2.88 1.308 3.958A3.74 3.74 0 0 0 0 13.75v2.5A3.75 3.75 0 0 0 3.75 20H10a3.75 3.75 0 0 0 3.75-3.75v-2.5a3.74 3.74 0 0 0-2.558-3.542z"/>
</svg>
