<svg xmlns="http://www.w3.org/2000/svg" width="15" height="20" viewBox="0 0 15 20">
    <path fill="#000" fill-rule="evenodd" d="M13.75 16.25c0 1.38-1.12 2.5-2.5 2.5h-7.5c-1.38 0-2.5-1.12-2.5-2.5V3.75c0-1.38 1.12-2.5 2.5-2.5h7.5c1.38 0 2.5 1.12 2.5 2.5v12.5zM11.25 0h-7.5A3.75 3.75 0 0 0 0 3.75v12.5A3.75 3.75 0 0 0 3.75 20h7.5A3.75 3.75 0 0 0 15 16.25V3.75A3.75 3.75 0 0 0 11.25 0zM7.5 15a1.248 1.248 0 1 0 0 2.496A1.248 1.248 0 1 0 7.5 15zM9.375 2.496h-3.75A.628.628 0 0 0 5 3.125c0 .342.28.62.625.62h3.75c.346 0 .625-.278.625-.62 0-.346-.28-.63-.625-.63z" opacity=".7"/>
</svg>
