<svg xmlns="http://www.w3.org/2000/svg" width="20" height="19"><path d="M15 12.033a.63.63 0 0 0 .625.629.63.63 0 0 0 .625-.629V3.796c0-.346-.28-.633-.625-.633a.63.63 0 0 0-.625.633v8.238zm3.75 3.796L15 13.933l-4.375 2.533L5 15.2l-3.75 1.9V4.43L5 2.53l5.625 2.538L15 1.262l3.75 2.533V15.83zM15 0l-4.375 3.796L5 1.262l-5 2.52V19l5-2.533 5.625 1.262L15 15.2l5 2.53V3.162L15 0zM5.625 4.43c-.345 0-.625.287-.625.638V13.3c0 .346.28.633.625.633s.625-.288.625-.633V5.067c0-.35-.28-.638-.625-.638zm5 1.904a.63.63 0 0 0-.625.629v6.97a.63.63 0 0 0 .625.629.63.63 0 0 0 .625-.629v-6.97a.63.63 0 0 0-.625-.629z" fill="#fff" fill-rule="evenodd"/></svg>