<?xml version="1.0" encoding="UTF-8"?>
<svg width="20px" height="19px" viewBox="0 0 20 19" version="1.1" xmlns="http://www.w3.org/2000/svg" xmlns:xlink="http://www.w3.org/1999/xlink">
    <!-- Generator: sketchtool 52.5 (67469) - http://www.bohemiancoding.com/sketch -->
    <title>5D7B025D-B46A-4780-9A1A-2818FCAD48C3</title>
    <desc>Created with sketchtool.</desc>
    <g id="alisontravel.eu-copy" stroke="none" stroke-width="1" fill="none" fill-rule="evenodd">
        <g id="Mobile---Country" transform="translate(-48.000000, -173.000000)" fill="#FFFFFF">
            <path d="M63,185.033333 C63,185.379133 63.2795833,185.662444 63.625,185.662444 C63.97,185.662444 64.25,185.379133 64.25,185.033333 L64.25,176.795778 C64.25,176.449556 63.97,176.162444 63.625,176.162444 C63.2795833,176.162444 63,176.449556 63,176.795778 L63,185.033333 L63,185.033333 Z M66.75,188.829111 L63,186.933333 L58.625,189.466667 L53,188.2 L49.25,190.1 L49.25,177.429111 L53,175.529111 L58.625,178.066667 L63,174.262444 L66.75,176.795778 L66.75,188.829111 L66.75,188.829111 Z M63,173 L58.625,176.795778 L53,174.262444 L48,176.783111 L48,192 L53,189.466667 L58.625,190.729111 L63,188.2 L68,190.729111 L68,176.162444 L63,173 L63,173 Z M53.625,177.429111 C53.2795833,177.429111 53,177.716222 53,178.066667 L53,186.3 C53,186.6458 53.2795833,186.933333 53.625,186.933333 C53.97,186.933333 54.25,186.6458 54.25,186.3 L54.25,178.066667 C54.25,177.716222 53.97,177.429111 53.625,177.429111 L53.625,177.429111 Z M58.625,179.333333 C58.2795833,179.333333 58,179.616222 58,179.962444 L58,186.933333 C58,187.279133 58.2795833,187.562444 58.625,187.562444 C58.97,187.562444 59.25,187.279133 59.25,186.933333 L59.25,179.962444 C59.25,179.616222 58.97,179.333333 58.625,179.333333 L58.625,179.333333 Z" id="Fill-65"></path>
        </g>
    </g>
</svg>