<?xml version="1.0" encoding="UTF-8"?>
<svg width="23px" height="19px" viewBox="0 0 23 19" version="1.1" xmlns="http://www.w3.org/2000/svg" xmlns:xlink="http://www.w3.org/1999/xlink">
    <!-- Generator: sketchtool 52.5 (67469) - http://www.bohemiancoding.com/sketch -->
    <title>B3A61E7B-E326-4502-851C-7F59AFF69B69</title>
    <desc>Created with sketchtool.</desc>
    <g id="alisontravel.eu-copy" stroke="none" stroke-width="1" fill="none" fill-rule="evenodd" opacity="0.295340402">
        <g id="Mobile---Country" transform="translate(-306.000000, -173.000000)" fill="#000000">
            <path d="M326.570625,180.307692 C325.593125,176.122821 321.913125,173 317.5,173 C314.198542,173 311.309167,174.753846 309.646458,177.384615 L311.448125,177.384615 C312.9,175.611282 315.05625,174.461538 317.5,174.461538 C321.112917,174.461538 324.126875,176.941282 325.070833,180.307692 L323.25,180.307692 L326.125,184.692308 L329,180.307692 L326.570625,180.307692 L326.570625,180.307692 Z M317.5,190.538462 C313.887083,190.538462 310.873125,188.058718 309.929167,184.692308 L311.75,184.692308 L308.875,180.307692 L306,184.692308 L308.429375,184.692308 C309.406875,188.877179 313.086875,192 317.5,192 C320.801458,192 323.690833,190.245667 325.353542,187.615385 L323.551875,187.615385 C322.1,189.383846 319.94375,190.538462 317.5,190.538462 L317.5,190.538462 Z" id="Fill-637"></path>
        </g>
    </g>
</svg>