<svg xmlns="http://www.w3.org/2000/svg" width="18" height="13" viewBox="0 0 18 13">
    <path fill="#000" fill-rule="nonzero" d="M17.586 2.042c-.212-.969-.965-1.683-1.872-1.79C13.568 0 11.396 0 9.234 0 7.07 0 4.898 0 2.752.252c-.906.107-1.658.821-1.87 1.79C.58 3.42.577 4.926.577 6.346c0 1.42 0 2.925.302 4.304.211.969.964 1.683 1.87 1.79 2.146.252 4.318.253 6.481.252 2.163.001 4.335 0 6.481-.252.906-.107 1.659-.821 1.87-1.79.303-1.379.304-2.884.304-4.304 0-1.42.002-2.925-.3-4.304zM6.997 9.172V3.152L12.5 6.17 6.997 9.173z" opacity=".5"/>
</svg>
